<mxfile host="app.diagrams.net" modified="2023-06-12T13:21:51.291Z" agent="Mozilla/5.0 (Windows NT 10.0; Win64; x64) AppleWebKit/537.36 (KHTML, like Gecko) Chrome/114.0.0.0 Safari/537.36" etag="v1Nva3oM0EfDL-OdA7ig" version="21.3.8" type="github">
  <diagram name="Страница 1" id="5YDnzwL6fyEWMy44GrpP">
    <mxGraphModel dx="1434" dy="707" grid="1" gridSize="10" guides="1" tooltips="1" connect="1" arrows="1" fold="1" page="1" pageScale="1" pageWidth="827" pageHeight="1169" math="0" shadow="0">
      <root>
        <mxCell id="0" />
        <mxCell id="1" parent="0" />
        <mxCell id="HTT1Jb8f-49O4zTfWvhW-9" value="Создает" style="edgeStyle=orthogonalEdgeStyle;rounded=0;orthogonalLoop=1;jettySize=auto;html=1;entryX=0.5;entryY=0;entryDx=0;entryDy=0;" parent="1" source="HTT1Jb8f-49O4zTfWvhW-1" target="HTT1Jb8f-49O4zTfWvhW-2" edge="1">
          <mxGeometry relative="1" as="geometry" />
        </mxCell>
        <mxCell id="HTT1Jb8f-49O4zTfWvhW-1" value="Пользователь" style="html=1;whiteSpace=wrap;" parent="1" vertex="1">
          <mxGeometry x="265" y="110" width="110" height="40" as="geometry" />
        </mxCell>
        <mxCell id="HTT1Jb8f-49O4zTfWvhW-11" value="Является" style="edgeStyle=orthogonalEdgeStyle;rounded=0;orthogonalLoop=1;jettySize=auto;html=1;" parent="1" source="HTT1Jb8f-49O4zTfWvhW-2" target="HTT1Jb8f-49O4zTfWvhW-3" edge="1">
          <mxGeometry relative="1" as="geometry" />
        </mxCell>
        <mxCell id="HTT1Jb8f-49O4zTfWvhW-2" value="Портфель пользователя" style="html=1;whiteSpace=wrap;" parent="1" vertex="1">
          <mxGeometry x="240" y="260" width="160" height="40" as="geometry" />
        </mxCell>
        <mxCell id="HTT1Jb8f-49O4zTfWvhW-12" value="Включает в себя&amp;nbsp;" style="edgeStyle=orthogonalEdgeStyle;rounded=0;orthogonalLoop=1;jettySize=auto;html=1;entryX=0.5;entryY=0;entryDx=0;entryDy=0;" parent="1" source="HTT1Jb8f-49O4zTfWvhW-3" target="HTT1Jb8f-49O4zTfWvhW-4" edge="1">
          <mxGeometry relative="1" as="geometry" />
        </mxCell>
        <mxCell id="HTT1Jb8f-49O4zTfWvhW-3" value="Портфель" style="html=1;whiteSpace=wrap;" parent="1" vertex="1">
          <mxGeometry x="275" y="360" width="90" height="30" as="geometry" />
        </mxCell>
        <mxCell id="HTT1Jb8f-49O4zTfWvhW-13" value="Включает в себя" style="edgeStyle=orthogonalEdgeStyle;rounded=0;orthogonalLoop=1;jettySize=auto;html=1;" parent="1" source="HTT1Jb8f-49O4zTfWvhW-4" target="HTT1Jb8f-49O4zTfWvhW-5" edge="1">
          <mxGeometry relative="1" as="geometry" />
        </mxCell>
        <mxCell id="HTT1Jb8f-49O4zTfWvhW-4" value="Финансовый инструмент" style="html=1;whiteSpace=wrap;" parent="1" vertex="1">
          <mxGeometry x="235" y="460" width="170" height="40" as="geometry" />
        </mxCell>
        <mxCell id="HTT1Jb8f-49O4zTfWvhW-5" value="Котировка" style="html=1;whiteSpace=wrap;" parent="1" vertex="1">
          <mxGeometry x="250" y="560" width="140" height="40" as="geometry" />
        </mxCell>
      </root>
    </mxGraphModel>
  </diagram>
</mxfile>
